<svg width="19" height="24" viewBox="0 0 19 24" fill="none" xmlns="http://www.w3.org/2000/svg">
    <path d="M14.4614 6V5C14.4614 2.2385 12.2229 0 9.46143 0C6.69993 0 4.46143 2.2385 4.46143 5V6H0.461426V21C0.461426 22.6575 1.80393 24 3.46143 24H15.4614C17.1189 24 18.4614 22.6575 18.4614 21V6H14.4614ZM6.46143 5C6.46143 3.34325 7.80468 2 9.46143 2C11.1182 2 12.4614 3.34325 12.4614 5V6H6.46143V5ZM16.4614 21C16.4614 21.5525 16.0139 22 15.4614 22H3.46143C2.90893 22 2.46143 21.5525 2.46143 21V8H16.4614V21Z" fill="black"/>
</svg>