<svg width="22" height="21" viewBox="0 0 22 21" fill="none" xmlns="http://www.w3.org/2000/svg">
<path d="M15.0915 11.2448C16.126 10.4353 16.8811 9.32536 17.2517 8.06926C17.6223 6.81315 17.5901 5.47339 17.1594 4.23637C16.7288 2.99934 15.9211 1.92657 14.8488 1.1673C13.7766 0.40802 12.493 0 11.1767 0C9.86044 0 8.57688 0.40802 7.50461 1.1673C6.43235 1.92657 5.62471 2.99934 5.19406 4.23637C4.7634 5.47339 4.73115 6.81315 5.10178 8.06926C5.47241 9.32536 6.2275 10.4353 7.262 11.2448C5.48937 11.9511 3.94269 13.1225 2.78684 14.6342C1.631 16.146 0.909323 17.9413 0.698748 19.8288C0.683505 19.9666 0.695705 20.1061 0.734651 20.2392C0.773596 20.3723 0.838525 20.4965 0.92573 20.6047C1.10185 20.8231 1.35801 20.9631 1.63786 20.9937C1.91771 21.0243 2.19833 20.9431 2.41799 20.7679C2.63764 20.5928 2.77833 20.338 2.80912 20.0597C3.04082 18.0083 4.02436 16.1138 5.57182 14.738C7.11928 13.3622 9.12218 12.6017 11.1978 12.6017C13.2735 12.6017 15.2764 13.3622 16.8238 14.738C18.3713 16.1138 19.3549 18.0083 19.5866 20.0597C19.6152 20.3176 19.739 20.5557 19.9338 20.7282C20.1287 20.9007 20.3809 20.9952 20.6417 20.9937H20.7578C21.0344 20.962 21.2872 20.8229 21.4612 20.6067C21.6351 20.3905 21.716 20.1147 21.6864 19.8393C21.4748 17.9464 20.7492 16.1465 19.5875 14.6324C18.4257 13.1184 16.8715 11.9473 15.0915 11.2448ZM11.1767 10.4997C10.3419 10.4997 9.52591 10.2535 8.83182 9.7923C8.13772 9.33106 7.59674 8.67549 7.27728 7.90848C6.95782 7.14147 6.87423 6.29748 7.03709 5.48323C7.19995 4.66898 7.60194 3.92104 8.19222 3.334C8.7825 2.74696 9.53456 2.34718 10.3533 2.18521C11.1721 2.02325 12.0207 2.10637 12.7919 2.42408C13.5632 2.74178 14.2224 3.2798 14.6861 3.97009C15.1499 4.66038 15.3975 5.47193 15.3975 6.30214C15.3975 7.4154 14.9528 8.48308 14.1612 9.27028C13.3697 10.0575 12.2961 10.4997 11.1767 10.4997Z" fill="black"/>
</svg>